<svg xmlns="http://www.w3.org/2000/svg" width="375.768" height="124.707" viewBox="0 0 375.768 124.707">
  <g id="Group_1196" data-name="Group 1196" transform="translate(-170.795 -1065.293)">
    <g id="Group_1167" data-name="Group 1167" transform="translate(-13468 -3962)">
      <g id="Group_1166" data-name="Group 1166">
        <path id="Path_124" data-name="Path 124" d="M0-7,20.944,7l299.2-7,55.414-24.375V78.8L0,79Z" transform="translate(13639 5073)" fill="#080f5c"/>
        <g id="Group_1161" data-name="Group 1161" transform="translate(1072 1461)">
          <path id="Path_121" data-name="Path 121" d="M0,688H15.667L51,728.667H319.667L362.8,687.6h12.7v41.587L342,758H34L0,730Z" transform="translate(12567 2879)" fill="#3a1683"/>
        </g>
        <g id="Path_108" data-name="Path 108" transform="translate(13687.802 5098)" fill="#3a1683" opacity="0.48">
          <path d="M 56.02184295654297 32.83105850219727 L 10.82216358184814 32.83105850219727 L 0.5000014901161194 28.41375350952148 L 0.5000014901161194 0.4999973475933075 L 56.02184295654297 0.4999973475933075 L 56.02184295654297 32.83105850219727 Z" stroke="none"/>
          <path d="M 1 0.9999961853027344 L 1 28.08387565612793 L 10.92463302612305 32.33105850219727 L 55.52184295654297 32.33105850219727 L 55.52184295654297 0.9999961853027344 L 1 0.9999961853027344 M 0 -3.814697265625e-06 L 56.52184295654297 -3.814697265625e-06 L 56.52184295654297 33.33105850219727 L 10.71966171264648 33.33105850219727 L 0 28.74364852905273 L 0 -3.814697265625e-06 Z" stroke="none" fill="#c52df1"/>
        </g>
        <g id="Path_109" data-name="Path 109" transform="translate(13905.906 5098)" fill="#3a1683" opacity="0.48">
          <path d="M 46.54708099365234 32.83105850219727 L 0.4999963045120239 32.83105850219727 L 0.4999963045120239 0.4999973475933075 L 58.94539642333984 0.4999973475933075 L 58.94539642333984 28.39159965515137 L 46.54708099365234 32.83105850219727 Z" stroke="none"/>
          <path d="M 0.9999961853027344 0.9999961853027344 L 0.9999961853027344 32.33105850219727 L 46.46023559570312 32.33105850219727 L 58.44539642333984 28.03953742980957 L 58.44539642333984 0.9999961853027344 L 0.9999961853027344 0.9999961853027344 M -3.814697265625e-06 -3.814697265625e-06 L 59.44539642333984 -3.814697265625e-06 L 59.44539642333984 28.74364852905273 L 46.63388824462891 33.33105850219727 L -3.814697265625e-06 33.33105850219727 L -3.814697265625e-06 -3.814697265625e-06 Z" stroke="none" fill="#c52df1"/>
        </g>
      </g>
    </g>
    <path id="Path_140" data-name="Path 140" d="M15.125-.125l35.5,40.25,267.791.292L362.3-.5" transform="translate(171.5 1066.5)" fill="none" stroke="#c52df1" stroke-linecap="round" stroke-width="1"/>
    <path id="Path_141" data-name="Path 141" d="M0,0,33.417,28.667l308.249.25L374.1.9" transform="translate(171.5 1107.5)" fill="none" stroke="#c52df1" stroke-linecap="round" stroke-width="1"/>
  </g>
</svg>
