<svg xmlns="http://www.w3.org/2000/svg" width="376.333" height="812" viewBox="0 0 376.333 812">
  <g id="Group_1167" data-name="Group 1167" transform="translate(-13641 -4338)">
    <g id="Group_1166" data-name="Group 1166">
      <g id="Group_1165" data-name="Group 1165">
        <path id="Path_124" data-name="Path 124" d="M0-7,20.944,7l299.2-7L376-16V79H0Z" transform="translate(13641 5071)" fill="#080f5c"/>
        <g id="Group_1164" data-name="Group 1164" transform="translate(13641 4338)">
          <rect id="Rectangle_42" data-name="Rectangle 42" width="13" height="74" transform="translate(0 17)" fill="#3a1683"/>
          <rect id="Rectangle_43" data-name="Rectangle 43" width="14" height="74" transform="translate(361 19)" fill="#3a1683"/>
          <g id="Group_1162" data-name="Group 1162" transform="translate(-12567 -2879)">
            <g id="Group_1161" data-name="Group 1161">
              <g id="Path_121" data-name="Path 121" transform="translate(12567 2879)" fill="#3a1683">
                <path d="M 341.8126831054688 757.5 L 34.17947387695312 757.5 L 0.5000039339065552 729.7639770507812 L 0.5000039339065552 0.5 L 15.1670036315918 0.5 L 15.1670036315918 688 L 15.1670036315918 688.1868896484375 L 15.28960418701172 688.327880859375 L 50.62260437011719 728.9946899414062 L 50.77210235595703 729.1668090820312 L 51.00000381469727 729.1668090820312 L 319.6669921875 729.1668090820312 L 319.8666076660156 729.1668090820312 L 320.0114135742188 729.029296875 L 360.0114135742188 691.029296875 L 360.1673889160156 690.881103515625 L 360.1669921875 690.665771484375 L 358.833984375 0.5 L 375.8325500488281 0.5 L 375.1672058105469 728.4390258789062 L 341.8126831054688 757.5 Z" stroke="none"/>
                <path d="M 1 1 L 1 729.5281372070312 L 34.35873413085938 757 L 341.6254577636719 757 L 374.6674194335938 728.2113037109375 L 375.3320922851562 1 L 359.3349304199219 1 L 360.6669921875 690.664794921875 L 360.6678161621094 691.09521484375 L 360.355712890625 691.3917236328125 L 320.355712890625 729.3917236328125 L 320.0663146972656 729.6666870117188 L 319.6669921875 729.6666870117188 L 51 729.6666870117188 L 50.54409790039062 729.6666870117188 L 50.2451171875 729.3225708007812 L 14.912109375 688.6558837890625 L 14.6669921875 688.3737182617188 L 14.6669921875 688 L 14.6669921875 1 L 1 1 M 0 0 L 15.6669921875 0 L 15.6669921875 688 L 51 728.6666870117188 L 319.6669921875 728.6666870117188 L 359.6669921875 690.6666870117188 L 358.3330078125 0 L 376.3330078125 0 L 375.6669921875 728.6666870117188 L 342 758 L 34 758 L 0 730 L 0 0 Z" stroke="none" fill="#c12bee"/>
              </g>
              <g id="Group_1150" data-name="Group 1150" transform="translate(12579.667 2879)">
                <g id="Path_113" data-name="Path 113" transform="translate(-12.667)" fill="#3a1683">
                  <path d="M 246.5038452148438 66.83327484130859 L 141.6747741699219 66.83327484130859 L 80.122802734375 33.13277435302734 L 80.01060485839844 33.07132720947266 L 79.88270568847656 33.07132720947266 L 0.5000039339065552 33.07132720947266 L 0.5000039339065552 0.5000259876251221 L 375.8330078125 0.5000259876251221 L 375.8330078125 33.07132720947266 L 297.1079406738281 33.07132720947266 L 296.9561157226562 33.07132720947266 L 296.8298950195312 33.15577697753906 L 246.5038452148438 66.83327484130859 Z" stroke="none"/>
                  <path d="M 1 0.9999771118164062 L 1 32.57132720947266 L 79.8826904296875 32.57132720947266 L 80.1385498046875 32.57132720947266 L 80.36294555664062 32.69417572021484 L 141.8027801513672 66.33322906494141 L 246.3519439697266 66.33322906494141 L 296.5518188476562 32.74022674560547 L 296.80419921875 32.57132720947266 L 297.1079711914062 32.57132720947266 L 375.3330078125 32.57132720947266 L 375.3330078125 0.9999771118164062 L 1 0.9999771118164062 M 0 -2.288818359375e-05 L 376.3330078125 -2.288818359375e-05 L 376.3330078125 33.57132720947266 L 297.1079711914062 33.57132720947266 L 246.6557006835938 67.33322906494141 L 141.5469055175781 67.33322906494141 L 79.8826904296875 33.57132720947266 L 0 33.57132720947266 L 0 -2.288818359375e-05 Z" stroke="none" fill="#bf2cec"/>
                </g>
              </g>
              <rect id="Rectangle_47" data-name="Rectangle 47" width="15" height="730" transform="translate(12567 2879)" fill="#3a1683"/>
              <path id="Path_123" data-name="Path 123" d="M0,0H17V729L5.195,727.6Z" transform="translate(12926 2879)" fill="#3a1683"/>
            </g>
          </g>
          <g id="Path_108" data-name="Path 108" transform="translate(48.802 758)" fill="#3a1683" opacity="0.48">
            <path d="M 56.02184295654297 32.83105850219727 L 10.82216358184814 32.83105850219727 L 0.5000014901161194 28.41375350952148 L 0.5000014901161194 0.4999973475933075 L 56.02184295654297 0.4999973475933075 L 56.02184295654297 32.83105850219727 Z" stroke="none"/>
            <path d="M 1 0.9999961853027344 L 1 28.08387565612793 L 10.92463302612305 32.33105850219727 L 55.52184295654297 32.33105850219727 L 55.52184295654297 0.9999961853027344 L 1 0.9999961853027344 M 0 -3.814697265625e-06 L 56.52184295654297 -3.814697265625e-06 L 56.52184295654297 33.33105850219727 L 10.71966171264648 33.33105850219727 L 0 28.74364852905273 L 0 -3.814697265625e-06 Z" stroke="none" fill="#c52df1"/>
          </g>
          <g id="Path_109" data-name="Path 109" transform="translate(266.905 758)" fill="#3a1683" opacity="0.48">
            <path d="M 46.54708099365234 32.83105850219727 L 0.4999963045120239 32.83105850219727 L 0.4999963045120239 0.4999973475933075 L 58.94539642333984 0.4999973475933075 L 58.94539642333984 28.39159965515137 L 46.54708099365234 32.83105850219727 Z" stroke="none"/>
            <path d="M 0.9999961853027344 0.9999961853027344 L 0.9999961853027344 32.33105850219727 L 46.46023559570312 32.33105850219727 L 58.44539642333984 28.03953742980957 L 58.44539642333984 0.9999961853027344 L 0.9999961853027344 0.9999961853027344 M -3.814697265625e-06 -3.814697265625e-06 L 59.44539642333984 -3.814697265625e-06 L 59.44539642333984 28.74364852905273 L 46.63388824462891 33.33105850219727 L -3.814697265625e-06 33.33105850219727 L -3.814697265625e-06 -3.814697265625e-06 Z" stroke="none" fill="#c52df1"/>
          </g>
          <g id="Path_112" data-name="Path 112" transform="translate(91 690.917)" fill="#fdb128">
            <path d="M 192 106.583251953125 L 1 106.583251953125 L 1 17.00977897644043 L 21.74563789367676 3.333251953125 L 170.0082244873047 3.333251953125 L 192 17.02663993835449 L 192 106.583251953125 Z" stroke="none"/>
            <path d="M 22.04560852050781 4.333251953125 L 2 17.54827880859375 L 2 105.583251953125 L 191 105.583251953125 L 191 17.58198547363281 L 169.7223510742188 4.333251953125 L 22.04560852050781 4.333251953125 M 21.4456787109375 2.333251953125 L 170.2941284179688 2.333251953125 L 193 16.47127532958984 L 193 107.583251953125 L 0 107.583251953125 L 0 16.47127532958984 L 21.4456787109375 2.333251953125 Z" stroke="none" fill="#c52cf0"/>
          </g>
        </g>
      </g>
    </g>
  </g>
</svg>
