<svg id="Capa_1" enable-background="new 0 0 512 512" height="512" viewBox="0 0 512 512" width="512" xmlns="http://www.w3.org/2000/svg"><g><path d="m449.638 27.222c-45.24 0-81.915 36.675-81.915 81.915v35.141l58.528-49.556 58.528-67.5z" fill="#5a781e"/><path d="m484.779 62.362v-35.14l-117.056 117.055h35.141c45.24 0 81.915-36.674 81.915-81.915z" fill="#355e16"/><g><g><path d="m-64.978 310.961h496.838v22.012h-496.838z" fill="#5a781e" transform="matrix(.707 -.707 .707 .707 -173.936 224.014)"/></g><g><path d="m-56.142 322.968h496.838v15.667h-496.838z" fill="#355e16" transform="matrix(.707 -.707 .707 .707 -177.596 232.85)"/></g><path d="m255.065 434.262-31.09-31.09c-31.797-31.797-83.35-31.797-115.147 0l-20.202 20.202 31.09 31.09c31.797 31.797 83.35 31.797 115.147 0z" fill="#5a781e"/><path d="m77.738 256.935 31.09 31.09c31.797 31.797 31.797 83.35 0 115.147l-20.202 20.202-31.09-31.09c-31.797-31.797-31.797-83.35 0-115.147z" fill="#9ebc2c"/><path d="m512 177.327-31.09-31.09c-31.797-31.797-83.35-31.797-115.147 0l-20.202 20.202 31.09 31.09c31.797 31.797 83.35 31.797 115.147 0z" fill="#5a781e"/><path d="m334.673 0 31.09 31.09c31.797 31.797 31.797 83.35 0 115.147l-20.202 20.202-31.09-31.09c-31.797-31.797-31.797-83.35 0-115.147z" fill="#9ebc2c"/><g><circle cx="355.439" cy="242.029" fill="#ae0000" r="60.435"/><circle cx="269.971" cy="156.561" fill="#de4c12" r="60.435"/><path d="m196.017 230.514c-23.601 23.601-23.601 61.867 0 85.468l48.792-36.676 36.676-48.792c-23.601-23.601-61.866-23.601-85.468 0z" fill="#ae0000"/><path d="m281.486 230.514-85.468 85.468c23.601 23.601 61.867 23.601 85.468 0s23.601-61.866 0-85.468z" fill="#830012"/></g></g></g></svg>